<?xml version="1.0" encoding="UTF-8" standalone="no"?>
<svg
   version="1.1"
   id="svg2"
   width="133.33333"
   height="19.959999"
   viewBox="0 0 133.33333 19.959999"><g
     id="g10"
     transform="matrix(1.3333333,0,0,-1.3333333,0,19.96)"><g
       id="g12"
       transform="scale(0.1)"><path
         d="M 31.7539,65.2656 H 70.5547 V 25.7891 H 31.7539 Z M 730.934,123.254 h 36.601 V 88.1953 h -36.601 z m -699.1801,0 H 68.3555 V 88.1953 H 31.7539 Z M 699.176,149.047 V 0 h 32.195 V 65.2656 H 769.73 V 0 h 32.2 v 56.6602 c 0,11.4687 -16.543,20.7265 -22.266,20.7265 5.731,0 20.059,10.6446 20.059,24.2543 v 25.136 c 0,9.317 -12.024,22.27 -22.051,22.27 z m -73.203,0 c -12.473,0 -21.828,-12.953 -21.828,-22.27 V 21.3867 C 604.145,11.3594 615.68,0 629.281,0 h 57.766 v 25.7891 h -52.031 v 39.4765 h 45.644 v 22.9297 h -45.644 v 35.0587 h 52.031 v 25.793 z m -177.493,0 c -12.48,0 -21.832,-12.953 -21.832,-22.27 V 21.3867 C 426.648,11.3594 437.949,0 451.566,0 h 57.989 v 25.7891 h -52.254 v 39.4765 h 45.859 v 22.9297 h -45.859 v 35.0587 h 52.254 v 25.793 z m -127.882,0 v -22.27 h 32.41 V 0 h 33.515 v 126.777 h 30.864 v 22.27 z m -87.535,0 c -11.559,0 -21.391,-12.188 -21.391,-25.793 V 0 h 30.867 v 126.777 h 40.133 V 0 h 30.648 v 123.254 c 0,13.605 -9.379,25.793 -22.05,25.793 z m -94.817,0 c -12.48,0 -21.824,-12.953 -21.824,-22.27 V 21.3867 C 116.422,11.3594 127.945,0 141.559,0 h 57.765 v 25.7891 h -52.035 v 39.4765 h 45.641 v 22.9297 h -45.641 v 35.0587 h 52.035 v 25.793 z M 0,149.047 V 0 H 80.4766 C 90.5078,0 102.75,11.3594 102.75,21.3867 v 35.2735 c 0,11.4687 -16.5391,20.7265 -22.2734,20.7265 5.7343,0 20.0664,10.6446 20.0664,24.2543 v 25.136 c 0,9.317 -12.0117,22.27 -22.0469,22.27 z m 520.355,0.664 V 22.2656 c 0,-10.0312 11.536,-21.613256 25.137,-21.613256 h 43.879 V 26.4531 H 552.555 V 149.711 h -32.2"
         style="fill:#2e4ba5;fill-opacity:1;fill-rule:nonzero;stroke:none"
         id="path14" /><path
         d="m 872.477,130.723 41.66,-24.051 41.64,24.051 h -83.3 M 913.961,0 827.926,149.016 h 172.07 z m -6.445,43.2344 V 95.6016 L 862.164,121.789 Z M 965.602,121.504 920.414,95.4141 V 43.2344 Z"
         style="fill:#2e4ba5;fill-opacity:1;fill-rule:nonzero;stroke:none"
         id="path16" /></g></g></svg>
