<?xml version="1.0" encoding="UTF-8" standalone="no"?>
<svg
   version="1.1"
   id="svg885"
   width="248"
   height="203"
   viewBox="0 0 248 203">
  <g
     id="layer2"
     style="display:inline">
    <path
       id="path991"
       style="opacity:1;fill:#287929;fill-opacity:1;stroke:none;stroke-width:0.542108;stroke-dashoffset:4.1;stroke-opacity:1"
       d="M 122,11.675781 A 85.166061,83.039711 0 0 0 37.080078,94.716797 85.166061,83.039711 0 0 0 122.24609,177.75586 85.166061,83.039711 0 0 0 195.375,137.27734 h -11.63867 a 75.965323,71.765552 0 0 1 -61.16406,29.20508 75.965323,71.765552 0 0 1 -75.964848,-71.765623 75.965323,71.765552 0 0 1 75.535158,-71.765625 75.965323,71.765552 0 0 1 0.42969,0 75.965323,71.765552 0 0 1 58.21484,25.662109 h 12.29492 a 85.166061,83.039711 0 0 0 -70.83594,-36.9375 85.166061,83.039711 0 0 0 -0.24609,0 z" />
  </g>
  <g
     id="layer1"
     style="display:inline">
    <path
       id="path940"
       style="display:inline;fill:#ca7929;fill-opacity:1;stroke:none;stroke-width:1px;stroke-linecap:butt;stroke-linejoin:miter;stroke-opacity:1"
       d="m 135.58594,5.53125 c 0,0 -1.10792,19.911577 1.82617,54.007812 l -17.45313,65.023438 -17.625,-64.769531 c 2.99824,-33.086754 1.75196,-53.3828128 1.75196,-53.3828128 l -8.664065,0.4082032 c 0,0 1.152487,50.3238586 -11.845703,96.8476606 -13.767655,49.27791 -51.06836,86.18554 -51.06836,86.18554 l 5.845704,7.12305 c -10e-7,0 25.361839,-13.67265 51.697265,-83.87891 6.460123,-17.22171 6.473676,-23.030448 10.269529,-39.296872 l 17.66407,68.859372 4.88476,0.0215 16.97266,-66.972659 c 2.17385,12.009916 3.65188,19.135094 9.77929,36.509769 19.07086,54.07664 51.69922,83.8789 51.69922,83.8789 l 5.84571,-7.12304 c 0,0 -37.42612,-36.87277 -51.06836,-86.18555 C 138.08785,37.686855 144.25,5.9394531 144.25,5.9394531 Z" />
  </g>
</svg>
