<?xml version="1.0" encoding="UTF-8" standalone="no"?>
<svg
   xmlns="http://www.w3.org/2000/svg"
   version="1.1"
   id="svg833"
   width="1500"
   height="600"
   viewBox="0 0 1500 600">

  <g
     id="layer1">
    <path
       style="fill:#131f74;stroke:#000000;stroke-width:1px;stroke-linecap:butt;stroke-linejoin:miter;stroke-opacity:1;fill-opacity:1"
       d="m 43.10977,503.95913 30.749379,-93.64423 173.777001,0.16041 16.40943,-0.68395 -113.69902,-163.31157 c 0,0 -36.56499,-114.61214 73.64057,-145.71758 6.69779,-1.890445 274.4687,1.98309 274.4687,1.98309 l -29.07124,93.81699 -139.02619,1.26741 5.14899,13.61195 85.72597,121.68956 c 0,0 74.26822,88.80166 -73.58416,172.187 -3.91008,2.20519 -304.53943,-1.35908 -304.53943,-1.35908 z"
       id="path846" />
    <path
       style="fill:#131f74;stroke:#000000;stroke-width:1px;stroke-linecap:butt;stroke-linejoin:miter;stroke-opacity:1;fill-opacity:1"
       d="m 437.00081,505.19166 64.65093,-223.19703 12.58417,-13.1376 89.1437,0.12714 -9.14646,6.06274 -61.42263,216.79775 -13.81815,13.50405 z"
       id="path848" />
    <path
       style="fill:#131f74;stroke:#000000;stroke-width:1px;stroke-linecap:butt;stroke-linejoin:miter;stroke-opacity:1;fill-opacity:1"
       d="m 558.18328,505.72015 43.81276,-161.37803 23.83464,-59.361 11.21807,-18.56963 51.36126,-0.0224 56.0928,89.29576 67.48785,-89.44035 88.49555,-0.70798 -16.35843,22.20677 -57.62842,217.9744 -83.78895,-0.20192 29.87495,-111.14855 -52.14903,41.18524 -34.72613,-41.56167 -31.92161,110.93166 z"
       id="path850" />
    <path
       style="fill:#131f74;stroke:#000000;stroke-width:1px;stroke-linecap:butt;stroke-linejoin:miter;stroke-opacity:1;fill-opacity:1"
       d="m 853.45511,504.43382 69.73645,-222.84304 16.40081,-15.74767 225.52793,0.16952 -15.8499,48.03574 -139.2959,-0.87252 -9.2936,34.97293 135.2525,0.43127 -17.7071,53.89655 -135.98536,1.56305 -10.01149,33.25781 134.78125,0.28918 -21.7705,69.08082 z"
       id="path852" />
    <path
       style="fill:#131f74;stroke:#000000;stroke-width:1px;stroke-linecap:butt;stroke-linejoin:miter;stroke-opacity:1;fill-opacity:1"
       d="m 1194.6711,266.36662 -77.5916,238.86742 224.8449,-0.0125 27.3845,-67.67233 -121.1127,1.91705 41.7562,-125.11628 120.7561,1.42095 16.8546,-49.67357 z"
       id="path854" />
  </g>
  <g
     id="layer2">
    <g
       aria-label="GRUPO"
       id="text859"
       style="font-size:165.333px;line-height:1.25;font-family:sans-serif;fill:#667b7b;fill-opacity:1">
      <path
         d="m 920.2292,180.02482 h 50.5919 c -6.44799,13.5573 -19.67463,21.49329 -35.87726,21.49329 -23.97328,0 -42.32525,-17.85597 -42.32525,-41.33325 0,-10.58131 4.46399,-22.15462 11.40798,-29.59461 7.10932,-7.60531 17.85596,-11.90397 29.59461,-11.90397 14.21863,0 26.12261,5.78665 33.56259,16.20263 h 26.61862 c -7.93599,-21.98929 -33.0666,-38.026587 -59.68521,-38.026587 -35.87726,0 -64.31454,27.775947 -64.31454,62.991867 0,35.87726 28.93327,63.48787 66.46386,63.48787 18.5173,0 34.22393,-6.44798 46.29324,-18.84796 11.24265,-11.73864 17.52526,-26.94928 17.52526,-42.65591 v -2.97599 h -79.8558 z"
         style="fill:#667b7b;fill-opacity:1"
         id="path861" />
      <path
         d="m 1014.9647,221.19273 h 22.6506 V 174.4035 l 32.0746,46.78923 h 27.9413 l -33.0666,-45.1359 c 9.424,-2.31467 14.0533,-4.46399 19.344,-8.92798 8.432,-7.10932 12.5653,-16.69864 12.5653,-28.93328 0,-12.56531 -4.464,-22.98128 -12.896,-30.0906 -7.936,-6.77866 -16.6986,-9.093318 -33.3973,-9.093318 h -35.2159 z m 22.6506,-63.81853 v -36.70393 h 10.0854 c 10.5813,0 16.3679,1.15734 20.0052,4.29866 3.968,3.14133 5.952,7.93599 5.952,13.88797 0,12.89598 -7.44,18.5173 -24.9652,18.5173 z"
         style="fill:#667b7b;fill-opacity:1"
         id="path863" />
      <path
         d="m 1112.3457,99.011652 v 77.375838 c 0,13.06131 1.984,21.49329 6.6133,28.76794 7.1093,11.24265 20.3359,18.18663 34.5546,18.18663 13.3919,0 25.7919,-5.95199 33.0666,-15.70663 5.7866,-7.93599 8.2666,-17.0293 8.2666,-31.24794 V 99.011652 h -22.6506 v 77.375838 c 0,9.09332 -0.6613,12.89598 -2.976,16.86397 -3.1413,5.12532 -8.928,8.26665 -15.7066,8.26665 -6.6133,0 -12.4,-3.14133 -15.5413,-8.26665 -2.3147,-3.96799 -2.976,-7.77065 -2.976,-16.86397 V 99.011652 Z"
         style="fill:#667b7b;fill-opacity:1"
         id="path865" />
      <path
         d="m 1218.1587,221.19273 h 22.6506 v -46.45857 h 7.2746 c 17.36,0 25.296,-1.32266 32.0746,-5.45599 9.92,-6.28265 16.0373,-18.51729 16.0373,-32.5706 0,-14.0533 -5.952,-25.62661 -16.5333,-32.0746 -6.944,-4.13332 -15.2106,-5.621318 -31.2479,-5.621318 h -30.2559 z m 22.6506,-68.11719 v -32.40527 h 7.6053 c 7.44,0 10.912,0.33067 14.384,1.15734 6.6133,1.81866 10.5813,7.60531 10.5813,15.21063 0,5.95199 -2.6453,10.58131 -7.44,13.22664 -3.472,1.81866 -9.5893,2.81066 -18.5173,2.81066 z"
         style="fill:#667b7b;fill-opacity:1"
         id="path867" />
      <path
         d="m 1369.438,96.862323 c -36.3733,0 -64.4799,27.610607 -64.4799,63.322537 0,35.38126 28.4373,63.1572 64.3146,63.1572 35.5466,0 62.9918,-27.61061 62.9918,-63.1572 0,-35.21593 -27.9412,-63.322537 -62.8265,-63.322537 z m -0.3307,21.823957 c 22.6506,0 40.3413,18.18663 40.3413,41.66391 0,23.64262 -17.1947,41.16792 -40.3413,41.16792 -23.1466,0 -41.3332,-18.18663 -41.3332,-41.33325 0,-23.64262 17.8559,-41.49858 41.3332,-41.49858 z"
         style="fill:#667b7b;fill-opacity:1"
         id="path869" />
    </g>
  </g>
</svg>
