<?xml version="1.0" encoding="UTF-8" standalone="no"?>
<svg
   xmlns:dc="http://purl.org/dc/elements/1.1/"
   xmlns:cc="http://creativecommons.org/ns#"
   xmlns:rdf="http://www.w3.org/1999/02/22-rdf-syntax-ns#"
   xmlns:svg="http://www.w3.org/2000/svg"
   xmlns="http://www.w3.org/2000/svg"
   width="178.85828"
   height="60.5"
   viewBox="0 0 47.322917 16.007291"
   version="1.1"
   id="svg8">
  <defs
     id="defs2" />
  <metadata
     id="metadata5">
    <rdf:RDF>
      <cc:Work
         rdf:about="">
        <dc:format>image/svg+xml</dc:format>
        <dc:type
           rdf:resource="http://purl.org/dc/dcmitype/StillImage" />
        <dc:title></dc:title>
      </cc:Work>
    </rdf:RDF>
  </metadata>
  <g
     id="layer2"
     style="display:inline">
    <path
       style="fill:#000000;fill-opacity:1;stroke:none;stroke-width:0.264583px;stroke-linecap:butt;stroke-linejoin:miter;stroke-opacity:1"
       d="m 40.957665,12.189827 c 0,0 -1.81931,0.26362 -3.13756,0.42345 -1.31826,0.15984 -2.88034,0.32773 -4.6005,0.47176 -1.72016,0.14403 -3.59841,0.2642 -5.549,0.32861 -1.95058,0.0644 -3.97351,0.0731 -5.98304,-0.006 -2.00954,-0.079 -4.00567,-0.24573 -5.90266,-0.53201 -1.89699,-0.28629 -3.69485,-0.69215 -5.30782,-1.2495 C 8.864116,11.068787 7.436023,10.359947 6.278551,9.4677073 5.753041,9.0626173 5.3980401,8.6598074 5.1791301,8.2650274 c -0.218911,-0.39479 -0.30173,-0.78153 -0.282874,-1.15448 0.01886,-0.37295 0.139388,-0.73211 0.327179,-1.0717 0.187792,-0.3396 0.4428429,-0.65964 0.7307389,-0.95437 0.287896,-0.29472 0.608636,-0.56412 0.927805,-0.80245 0.319169,-0.23832 0.636766,-0.44557 0.918377,-0.61598 0.28161,-0.1704 0.702455,-0.39493 0.702455,-0.39493 l -0.03292,-0.0382 c 0,0 -0.484601,0.16526 -0.827883,0.29318 -0.686564,0.25586 -1.605415,0.62895 -2.5345619,1.09791 -0.929147,0.46895 -1.86859,1.03377 -2.596339,1.67306 -0.727748,0.6393 -1.243801,1.35307 -1.326169,2.11995 -0.20076305,1.8691796 2.040267,3.6236296 5.6231869,4.9061196 3.58292,1.28248 8.50773,2.09302 13.67453,2.07432 1.2917,-0.005 2.59853,-0.0612 3.89651,-0.15647 1.29799,-0.0953 2.58714,-0.22938 3.84348,-0.38923 1.25634,-0.15986 2.47988,-0.34547 3.64665,-0.54383 1.16678,-0.19836 2.27678,-0.40945 3.30605,-0.62025 1.02928,-0.2108 1.97782,-0.42131 2.82167,-0.6185 0.84384,-0.19718 1.58299,-0.38105 2.19349,-0.53857 0.30524,-0.0788 0.81625,-0.21488 0.81625,-0.21488 z"
       id="path161" />
    <path
       style="fill:#000000;fill-opacity:1;stroke:none;stroke-width:0.235713px;stroke-linecap:butt;stroke-linejoin:miter;stroke-opacity:1"
       d="m 9.282518,3.8641774 c 0,0 1.699067,-0.22514 2.901087,-0.36427 1.20201,-0.13913 2.62635,-0.28526 4.19483,-0.41063 1.56848,-0.12537 3.2811,-0.22998 5.05969,-0.28604 1.77858,-0.0561 3.62313,-0.0636 5.45547,0.005 1.83233,0.0688 3.65244,0.21389 5.38216,0.46308 1.72972,0.24919 3.36904,0.60247 4.83978,1.08761 1.47074,0.48514 2.7729,1.10214 3.82831,1.87878 0.95834,0.70521 1.29479,1.4025 1.26041,2.05176 -0.0344,0.6492599 -0.43962,1.2504899 -0.96463,1.7635596 -0.52502,0.51307 -1.16983,0.938 -1.68339,1.23465 -0.12839,0.0742 -0.24858,0.14031 -0.35664,0.19781 -0.10806,0.0575 -0.28387,0.14595 -0.28387,0.14595 l 0.03,0.0331 c 0,0 0.44187,-0.14384 0.75488,-0.25519 0.62603,-0.2227 1.46385,-0.54747 2.31107,-0.95566 0.84721,-0.4082 1.70382,-0.8998297 2.36739,-1.4562997 0.66358,-0.5564599 1.13413,-1.1777599 1.20923,-1.8452799 0.36612,-3.25401 -8.17367,-6.1086201 -17.59606,-6.07602 -0.5889,0.002 -1.18125,0.0154 -1.77431,0.0385 -0.59307,0.0232 -1.18685,0.0562 -1.77861,0.0977 -0.59177,0.0415 -1.18152,0.0914 -1.76652,0.14833 -0.58501,0.0569 -1.16527,0.12091 -1.73805,0.19048 -0.57278,0.0696 -1.13808,0.14475 -1.69317,0.22411 -0.55509,0.0794 -1.09998,0.16293 -1.63192,0.24926 -0.53195,0.0863 -1.05095,0.17542 -1.55428,0.26588 -0.50333,0.0905 -0.99099,0.18226 -1.46025,0.274 -0.46925,0.0917 -0.92011,0.18342 -1.34982,0.27362 -0.42972,0.0902 -0.83831,0.17892 -1.22303,0.26474 -0.38471,0.0858 -0.74557,0.16873 -1.07982,0.24734 -0.33425,0.0786 -0.641912,0.15289 -0.920242,0.22144 -0.2783297,0.0685 -0.744272,0.18704 -0.744272,0.18704 z"
       id="path161-0" />
    <path
       d="M 10.544274,5.65128 V 7.9688 H 10.7372 q 0.419612,0 0.598068,-0.26286 0.178456,-0.26527 0.178456,-0.89952 0,-0.62942 -0.178456,-0.89228 Q 11.156812,5.65128 10.7372,5.65128 Z M 9.832862,5.00981 h 0.762055 q 0.882634,0 1.270896,0.42202 0.388263,0.41961 0.388263,1.37459 0,0.9574 -0.388263,1.38183 -0.388262,0.42203 -1.270896,0.42203 H 9.832862 Z"
       style="font-style:normal;font-variant:normal;font-weight:bold;font-stretch:normal;font-size:4.93889px;line-height:1.25;font-family:'DejaVu Sans Mono';-inkscape-font-specification:'DejaVu Sans Mono Bold';fill:#000000;fill-opacity:1;stroke:none;stroke-width:0.264583"
       id="path1016" />
    <path
       d="M 15.123839,8.61028 H 12.881083 V 5.00981 h 2.242756 v 0.627 h -1.531344 v 0.77653 h 1.386654 v 0.62701 h -1.386654 v 0.94292 h 1.531344 z"
       style="font-style:normal;font-variant:normal;font-weight:bold;font-stretch:normal;font-size:4.93889px;line-height:1.25;font-family:'DejaVu Sans Mono';-inkscape-font-specification:'DejaVu Sans Mono Bold';fill:#000000;fill-opacity:1;stroke:none;stroke-width:0.264583"
       id="path1018" />
    <path
       d="M 15.992009,8.61028 V 5.00981 h 0.71141 v 2.97346 h 1.5217 v 0.62701 z"
       style="font-style:normal;font-variant:normal;font-weight:bold;font-stretch:normal;font-size:4.93889px;line-height:1.25;font-family:'DejaVu Sans Mono';-inkscape-font-specification:'DejaVu Sans Mono Bold';fill:#000000;fill-opacity:1;stroke:none;stroke-width:0.264583"
       id="path1020" />
    <path
       d="m 21.070769,8.61028 h -2.24276 V 5.00981 h 2.24276 v 0.627 h -1.53135 v 0.77653 h 1.38665 v 0.62701 h -1.38665 v 0.94292 h 1.53135 z"
       style="font-style:normal;font-variant:normal;font-weight:bold;font-stretch:normal;font-size:4.93889px;line-height:1.25;font-family:'DejaVu Sans Mono';-inkscape-font-specification:'DejaVu Sans Mono Bold';fill:#000000;fill-opacity:1;stroke:none;stroke-width:0.264583"
       id="path1022" />
    <path
       d="m 21.678479,5.00981 h 0.71141 v 1.42282 l 1.11415,-1.42282 h 0.80546 l -1.13585,1.418 1.17685,2.18247 h -0.791 l -0.85369,-1.62058 -0.31592,0.40032 v 1.22026 h -0.71141 z"
       style="font-style:normal;font-variant:normal;font-weight:bold;font-stretch:normal;font-size:4.93889px;line-height:1.25;font-family:'DejaVu Sans Mono';-inkscape-font-specification:'DejaVu Sans Mono Bold';fill:#000000;fill-opacity:1;stroke:none;stroke-width:0.264583"
       id="path1024" />
    <path
       d="m 26.212229,8.61028 h -0.71141 V 5.63199 h -0.91399 V 5.00981 h 2.53938 v 0.62218 h -0.91398 z"
       style="font-style:normal;font-variant:normal;font-weight:bold;font-stretch:normal;font-size:4.93889px;line-height:1.25;font-family:'DejaVu Sans Mono';-inkscape-font-specification:'DejaVu Sans Mono Bold';fill:#000000;fill-opacity:1;stroke:none;stroke-width:0.264583"
       id="path1026" />
    <path
       d="m 29.289389,6.91012 q 0.10611,0.0217 0.18328,0.10129 0.0796,0.0772 0.19292,0.30385 l 0.65113,1.29502 h -0.78135 l -0.43408,-0.90916 q -0.0193,-0.0386 -0.0506,-0.10611 -0.19051,-0.40756 -0.44855,-0.40756 h -0.22669 v 1.42283 h -0.71141 V 5.00981 h 1.02733 q 0.69453,0 0.99598,0.24598 0.30385,0.24598 0.30385,0.80064 0,0.37138 -0.18086,0.59083 -0.18087,0.21945 -0.5209,0.26286 z m -0.91399,-1.30225 v 0.98151 h 0.33521 q 0.2918,0 0.4172,-0.11334 0.12782,-0.11576 0.12782,-0.37862 0,-0.26286 -0.12541,-0.3762 -0.1254,-0.11335 -0.41961,-0.11335 z"
       style="font-style:normal;font-variant:normal;font-weight:bold;font-stretch:normal;font-size:4.93889px;line-height:1.25;font-family:'DejaVu Sans Mono';-inkscape-font-specification:'DejaVu Sans Mono Bold';fill:#000000;fill-opacity:1;stroke:none;stroke-width:0.264583"
       id="path1028" />
    <path
       d="m 31.802239,5.58376 q -0.27251,0 -0.39791,0.2918 -0.1254,0.28939 -0.1254,0.9381 0,0.6463 0.1254,0.9381 0.1254,0.28939 0.39791,0.28939 0.27492,0 0.40032,-0.28939 0.1254,-0.2918 0.1254,-0.9381 0,-0.64871 -0.1254,-0.9381 -0.1254,-0.2918 -0.40032,-0.2918 z m -1.26366,1.2299 q 0,-0.92363 0.31833,-1.3963 0.32074,-0.47267 0.94533,-0.47267 0.62701,0 0.94534,0.47267 0.32073,0.47267 0.32073,1.3963 0,0.92122 -0.32073,1.39388 -0.31833,0.47267 -0.94534,0.47267 -0.62459,0 -0.94533,-0.47267 -0.31833,-0.47266 -0.31833,-1.39388 z"
       style="font-style:normal;font-variant:normal;font-weight:bold;font-stretch:normal;font-size:4.93889px;line-height:1.25;font-family:'DejaVu Sans Mono';-inkscape-font-specification:'DejaVu Sans Mono Bold';fill:#000000;fill-opacity:1;stroke:none;stroke-width:0.264583"
       id="path1030" />
    <path
       d="m 33.577159,5.00981 h 0.76446 l 1.00321,2.61655 V 5.00981 h 0.62701 v 3.60047 h -0.75964 l -1.00804,-2.61655 v 2.61655 h -0.627 z"
       style="font-style:normal;font-variant:normal;font-weight:bold;font-stretch:normal;font-size:4.93889px;line-height:1.25;font-family:'DejaVu Sans Mono';-inkscape-font-specification:'DejaVu Sans Mono Bold';fill:#000000;fill-opacity:1;stroke:none;stroke-width:0.264583"
       id="path1032" />
    <path
       style="color:#000000;font-style:normal;font-variant:normal;font-weight:normal;font-stretch:normal;font-size:1.76389px;line-height:1.25;font-family:FreeSans;-inkscape-font-specification:FreeSans;font-variant-ligatures:normal;font-variant-position:normal;font-variant-caps:normal;font-variant-numeric:normal;font-variant-alternates:normal;font-variant-east-asian:normal;font-feature-settings:normal;font-variation-settings:normal;text-indent:0;text-align:start;text-decoration:none;text-decoration-line:none;text-decoration-style:solid;text-decoration-color:#000000;letter-spacing:normal;word-spacing:normal;text-transform:none;writing-mode:lr-tb;direction:ltr;text-orientation:mixed;dominant-baseline:auto;baseline-shift:baseline;text-anchor:start;white-space:normal;shape-padding:0;shape-margin:0;inline-size:0;clip-rule:nonzero;display:inline;overflow:visible;visibility:visible;isolation:auto;mix-blend-mode:normal;color-interpolation:sRGB;color-interpolation-filters:linearRGB;solid-color:#000000;solid-opacity:1;vector-effect:none;fill:#000000;fill-opacity:1;fill-rule:nonzero;stroke:none;stroke-width:0.264583;stroke-linecap:butt;stroke-linejoin:miter;stroke-miterlimit:4;stroke-dasharray:none;stroke-dashoffset:0;stroke-opacity:1;color-rendering:auto;image-rendering:auto;shape-rendering:auto;text-rendering:auto;enable-background:accumulate;stop-color:#000000"
       d="m 11.741819,10.27938 v 0.44097 h 0.758473 v 0.14464 H 11.577777 V 9.57912 h 0.890765 v 0.14463 h -0.726723 v 0.41099 h 0.700264 v 0.14464 z"
       id="path1035" />
    <path
       style="color:#000000;font-style:normal;font-variant:normal;font-weight:normal;font-stretch:normal;font-size:1.76389px;line-height:1.25;font-family:FreeSans;-inkscape-font-specification:FreeSans;font-variant-ligatures:normal;font-variant-position:normal;font-variant-caps:normal;font-variant-numeric:normal;font-variant-alternates:normal;font-variant-east-asian:normal;font-feature-settings:normal;font-variation-settings:normal;text-indent:0;text-align:start;text-decoration:none;text-decoration-line:none;text-decoration-style:solid;text-decoration-color:#000000;letter-spacing:normal;word-spacing:normal;text-transform:none;writing-mode:lr-tb;direction:ltr;text-orientation:mixed;dominant-baseline:auto;baseline-shift:baseline;text-anchor:start;white-space:normal;shape-padding:0;shape-margin:0;inline-size:0;clip-rule:nonzero;display:inline;overflow:visible;visibility:visible;isolation:auto;mix-blend-mode:normal;color-interpolation:sRGB;color-interpolation-filters:linearRGB;solid-color:#000000;solid-opacity:1;vector-effect:none;fill:#000000;fill-opacity:1;fill-rule:nonzero;stroke:none;stroke-width:0.264583;stroke-linecap:butt;stroke-linejoin:miter;stroke-miterlimit:4;stroke-dasharray:none;stroke-dashoffset:0;stroke-opacity:1;color-rendering:auto;image-rendering:auto;shape-rendering:auto;text-rendering:auto;enable-background:accumulate;stop-color:#000000"
       d="m 12.85836,9.57912 v 1.14123 h 0.635001 v 0.14464 H 12.694319 V 9.57912 Z"
       id="path1037" />
    <path
       style="color:#000000;font-style:normal;font-variant:normal;font-weight:normal;font-stretch:normal;font-size:1.76389px;line-height:1.25;font-family:FreeSans;-inkscape-font-specification:FreeSans;font-variant-ligatures:normal;font-variant-position:normal;font-variant-caps:normal;font-variant-numeric:normal;font-variant-alternates:normal;font-variant-east-asian:normal;font-feature-settings:normal;font-variation-settings:normal;text-indent:0;text-align:start;text-decoration:none;text-decoration-line:none;text-decoration-style:solid;text-decoration-color:#000000;letter-spacing:normal;word-spacing:normal;text-transform:none;writing-mode:lr-tb;direction:ltr;text-orientation:mixed;dominant-baseline:auto;baseline-shift:baseline;text-anchor:start;white-space:normal;shape-padding:0;shape-margin:0;inline-size:0;clip-rule:nonzero;display:inline;overflow:visible;visibility:visible;isolation:auto;mix-blend-mode:normal;color-interpolation:sRGB;color-interpolation-filters:linearRGB;solid-color:#000000;solid-opacity:1;vector-effect:none;fill:#000000;fill-opacity:1;fill-rule:nonzero;stroke:none;stroke-width:0.264583;stroke-linecap:butt;stroke-linejoin:miter;stroke-miterlimit:4;stroke-dasharray:none;stroke-dashoffset:0;stroke-opacity:1;color-rendering:auto;image-rendering:auto;shape-rendering:auto;text-rendering:auto;enable-background:accumulate;stop-color:#000000"
       d="m 13.85143,10.27938 v 0.44097 h 0.758469 v 0.14464 H 13.687388 V 9.57912 h 0.890761 V 9.72375 H 13.85143 v 0.41099 h 0.700269 v 0.14464 z"
       id="path1039" />
    <path
       style="color:#000000;font-style:normal;font-variant:normal;font-weight:normal;font-stretch:normal;font-size:1.76389px;line-height:1.25;font-family:FreeSans;-inkscape-font-specification:FreeSans;font-variant-ligatures:normal;font-variant-position:normal;font-variant-caps:normal;font-variant-numeric:normal;font-variant-alternates:normal;font-variant-east-asian:normal;font-feature-settings:normal;font-variation-settings:normal;text-indent:0;text-align:start;text-decoration:none;text-decoration-line:none;text-decoration-style:solid;text-decoration-color:#000000;letter-spacing:normal;word-spacing:normal;text-transform:none;writing-mode:lr-tb;direction:ltr;text-orientation:mixed;dominant-baseline:auto;baseline-shift:baseline;text-anchor:start;white-space:normal;shape-padding:0;shape-margin:0;inline-size:0;clip-rule:nonzero;display:inline;overflow:visible;visibility:visible;isolation:auto;mix-blend-mode:normal;color-interpolation:sRGB;color-interpolation-filters:linearRGB;solid-color:#000000;solid-opacity:1;vector-effect:none;fill:#000000;fill-opacity:1;fill-rule:nonzero;stroke:none;stroke-width:0.264583;stroke-linecap:butt;stroke-linejoin:miter;stroke-miterlimit:4;stroke-dasharray:none;stroke-dashoffset:0;stroke-opacity:1;color-rendering:auto;image-rendering:auto;shape-rendering:auto;text-rendering:auto;enable-background:accumulate;stop-color:#000000"
       d="m 14.733379,10.23705 c 0,-0.0588 0.005,-0.11701 0.0141,-0.17463 0.0106,-0.0576 0.03,-0.11757 0.0582,-0.17992 0.0282,-0.0623 0.0629,-0.11642 0.10407,-0.16227 0.0423,-0.0471 0.0988,-0.0859 0.16934,-0.11642 0.0717,-0.0306 0.15228,-0.0459 0.24165,-0.0459 0.27987,0 0.44509,0.13993 0.49565,0.4198 h -0.16757 c -0.0188,-0.0917 -0.0558,-0.16051 -0.11112,-0.20637 -0.0553,-0.0459 -0.13405,-0.0688 -0.23636,-0.0688 -0.12465,0 -0.22343,0.0476 -0.29634,0.14287 -0.0717,0.0952 -0.10759,0.22519 -0.10759,0.38982 0,0.16111 0.0376,0.28928 0.11289,0.38453 0.0752,0.0941 0.17697,0.14111 0.30515,0.14111 0.10583,0 0.18697,-0.0294 0.24342,-0.0882 0.0565,-0.06 0.0947,-0.15231 0.11465,-0.27693 h 0.16933 c -0.0388,0.33984 -0.21519,0.50976 -0.52917,0.50976 -0.0882,0 -0.16757,-0.0147 -0.23812,-0.0441 -0.0694,-0.0306 -0.12524,-0.0688 -0.16757,-0.11465 -0.0411,-0.0459 -0.0758,-0.0994 -0.10407,-0.16051 -0.0271,-0.0623 -0.0459,-0.12172 -0.0564,-0.17816 -0.009,-0.0565 -0.0141,-0.1135 -0.0141,-0.17109 z"
       id="path1041" />
    <path
       style="color:#000000;font-style:normal;font-variant:normal;font-weight:normal;font-stretch:normal;font-size:1.76389px;line-height:1.25;font-family:FreeSans;-inkscape-font-specification:FreeSans;font-variant-ligatures:normal;font-variant-position:normal;font-variant-caps:normal;font-variant-numeric:normal;font-variant-alternates:normal;font-variant-east-asian:normal;font-feature-settings:normal;font-variation-settings:normal;text-indent:0;text-align:start;text-decoration:none;text-decoration-line:none;text-decoration-style:solid;text-decoration-color:#000000;letter-spacing:normal;word-spacing:normal;text-transform:none;writing-mode:lr-tb;direction:ltr;text-orientation:mixed;dominant-baseline:auto;baseline-shift:baseline;text-anchor:start;white-space:normal;shape-padding:0;shape-margin:0;inline-size:0;clip-rule:nonzero;display:inline;overflow:visible;visibility:visible;isolation:auto;mix-blend-mode:normal;color-interpolation:sRGB;color-interpolation-filters:linearRGB;solid-color:#000000;solid-opacity:1;vector-effect:none;fill:#000000;fill-opacity:1;fill-rule:nonzero;stroke:none;stroke-width:0.264583;stroke-linecap:butt;stroke-linejoin:miter;stroke-miterlimit:4;stroke-dasharray:none;stroke-dashoffset:0;stroke-opacity:1;color-rendering:auto;image-rendering:auto;shape-rendering:auto;text-rendering:auto;enable-background:accumulate;stop-color:#000000"
       d="m 16.553709,9.72375 v 1.14124 h -0.16404 V 9.72375 h -0.42334 V 9.57912 h 1.00895 v 0.14463 z"
       id="path1043" />
    <path
       style="color:#000000;font-style:normal;font-variant:normal;font-weight:normal;font-stretch:normal;font-size:1.76389px;line-height:1.25;font-family:FreeSans;-inkscape-font-specification:FreeSans;font-variant-ligatures:normal;font-variant-position:normal;font-variant-caps:normal;font-variant-numeric:normal;font-variant-alternates:normal;font-variant-east-asian:normal;font-feature-settings:normal;font-variation-settings:normal;text-indent:0;text-align:start;text-decoration:none;text-decoration-line:none;text-decoration-style:solid;text-decoration-color:#000000;letter-spacing:normal;word-spacing:normal;text-transform:none;writing-mode:lr-tb;direction:ltr;text-orientation:mixed;dominant-baseline:auto;baseline-shift:baseline;text-anchor:start;white-space:normal;shape-padding:0;shape-margin:0;inline-size:0;clip-rule:nonzero;display:inline;overflow:visible;visibility:visible;isolation:auto;mix-blend-mode:normal;color-interpolation:sRGB;color-interpolation-filters:linearRGB;solid-color:#000000;solid-opacity:1;vector-effect:none;fill:#000000;fill-opacity:1;fill-rule:nonzero;stroke:none;stroke-width:0.264583;stroke-linecap:butt;stroke-linejoin:miter;stroke-miterlimit:4;stroke-dasharray:none;stroke-dashoffset:0;stroke-opacity:1;color-rendering:auto;image-rendering:auto;shape-rendering:auto;text-rendering:auto;enable-background:accumulate;stop-color:#000000"
       d="m 17.950709,10.22999 c 0.0376,0.0165 0.0688,0.0359 0.0935,0.0582 0.0259,0.0223 0.0441,0.0476 0.0547,0.0758 0.0117,0.0282 0.0194,0.0547 0.0229,0.0794 0.003,0.0247 0.005,0.0541 0.005,0.0882 0,0.0106 -6.7e-4,0.0259 -0.002,0.0459 v 0.0441 c 0,0.0482 0.005,0.0888 0.0159,0.12171 0.0106,0.0329 0.0312,0.06 0.0617,0.0811 v 0.0406 h -0.19932 c -0.0235,-0.0541 -0.0353,-0.12403 -0.0353,-0.2099 v -0.11465 c 0,-0.0788 -0.0171,-0.13642 -0.0512,-0.17287 -0.0341,-0.0376 -0.0876,-0.0564 -0.16052,-0.0564 h -0.42333 v 0.55386 h -0.16404 V 9.57917 h 0.59266 c 0.12583,0 0.22225,0.03 0.28928,0.0899 0.0682,0.0588 0.10231,0.14347 0.10231,0.254 0,0.0729 -0.0159,0.13347 -0.0476,0.18168 -0.0317,0.0482 -0.0835,0.09 -0.15522,0.12524 z m 0.0318,-0.28399 c 0,-0.0847 -0.0223,-0.14287 -0.067,-0.17462 -0.0447,-0.0317 -0.1064,-0.0476 -0.18521,-0.0476 h -0.39687 v 0.44274 h 0.39687 c 0.087,0 0.15052,-0.0176 0.1905,-0.0529 0.0411,-0.0353 0.0617,-0.0911 0.0617,-0.16757 z"
       id="path1045" />
    <path
       style="color:#000000;font-style:normal;font-variant:normal;font-weight:normal;font-stretch:normal;font-size:1.76389px;line-height:1.25;font-family:FreeSans;-inkscape-font-specification:FreeSans;font-variant-ligatures:normal;font-variant-position:normal;font-variant-caps:normal;font-variant-numeric:normal;font-variant-alternates:normal;font-variant-east-asian:normal;font-feature-settings:normal;font-variation-settings:normal;text-indent:0;text-align:start;text-decoration:none;text-decoration-line:none;text-decoration-style:solid;text-decoration-color:#000000;letter-spacing:normal;word-spacing:normal;text-transform:none;writing-mode:lr-tb;direction:ltr;text-orientation:mixed;dominant-baseline:auto;baseline-shift:baseline;text-anchor:start;white-space:normal;shape-padding:0;shape-margin:0;inline-size:0;clip-rule:nonzero;display:inline;overflow:visible;visibility:visible;isolation:auto;mix-blend-mode:normal;color-interpolation:sRGB;color-interpolation-filters:linearRGB;solid-color:#000000;solid-opacity:1;vector-effect:none;fill:#000000;fill-opacity:1;fill-rule:nonzero;stroke:none;stroke-width:0.264583;stroke-linecap:butt;stroke-linejoin:miter;stroke-miterlimit:4;stroke-dasharray:none;stroke-dashoffset:0;stroke-opacity:1;color-rendering:auto;image-rendering:auto;shape-rendering:auto;text-rendering:auto;enable-background:accumulate;stop-color:#000000"
       d="m 19.591129,10.24234 c 0,0.1905 -0.0564,0.34866 -0.16934,0.47448 -0.11289,0.12583 -0.2634,0.18874 -0.45155,0.18874 -0.1858,0 -0.33573,-0.0617 -0.44979,-0.18521 -0.11407,-0.12465 -0.1711,-0.28751 -0.1711,-0.4886 0,-0.20108 0.057,-0.36336 0.1711,-0.48683 0.11406,-0.12465 0.2634,-0.18697 0.44802,-0.18697 0.18815,0 0.33867,0.0623 0.45156,0.18697 0.11407,0.12465 0.1711,0.29045 0.1711,0.49742 z m -0.62266,-0.53975 c -0.13641,0 -0.24635,0.0488 -0.32984,0.1464 -0.0835,0.0964 -0.12524,0.22401 -0.12524,0.38276 0,0.15875 0.0417,0.28693 0.12524,0.38453 0.0847,0.0964 0.1952,0.14464 0.33161,0.14464 0.13641,0 0.24635,-0.0482 0.32984,-0.14464 0.0847,-0.0964 0.127,-0.22225 0.127,-0.37747 0,-0.16228 -0.0417,-0.29222 -0.12523,-0.38982 -0.0835,-0.0976 -0.19462,-0.1464 -0.33338,-0.1464 z"
       id="path1047" />
    <path
       style="color:#000000;font-style:normal;font-variant:normal;font-weight:normal;font-stretch:normal;font-size:1.76389px;line-height:1.25;font-family:FreeSans;-inkscape-font-specification:FreeSans;font-variant-ligatures:normal;font-variant-position:normal;font-variant-caps:normal;font-variant-numeric:normal;font-variant-alternates:normal;font-variant-east-asian:normal;font-feature-settings:normal;font-variation-settings:normal;text-indent:0;text-align:start;text-decoration:none;text-decoration-line:none;text-decoration-style:solid;text-decoration-color:#000000;letter-spacing:normal;word-spacing:normal;text-transform:none;writing-mode:lr-tb;direction:ltr;text-orientation:mixed;dominant-baseline:auto;baseline-shift:baseline;text-anchor:start;white-space:normal;shape-padding:0;shape-margin:0;inline-size:0;clip-rule:nonzero;display:inline;overflow:visible;visibility:visible;isolation:auto;mix-blend-mode:normal;color-interpolation:sRGB;color-interpolation-filters:linearRGB;solid-color:#000000;solid-opacity:1;vector-effect:none;fill:#000000;fill-opacity:1;fill-rule:nonzero;stroke:none;stroke-width:0.264583;stroke-linecap:butt;stroke-linejoin:miter;stroke-miterlimit:4;stroke-dasharray:none;stroke-dashoffset:0;stroke-opacity:1;color-rendering:auto;image-rendering:auto;shape-rendering:auto;text-rendering:auto;enable-background:accumulate;stop-color:#000000"
       d="m 20.808209,9.57912 v 1.28587 h -0.18521 l -0.66499,-1.04246 v 1.04246 h -0.15522 V 9.57912 h 0.17815 l 0.67205,1.05127 V 9.57912 Z"
       id="path1049" />
    <path
       style="color:#000000;font-style:normal;font-variant:normal;font-weight:normal;font-stretch:normal;font-size:1.76389px;line-height:1.25;font-family:FreeSans;-inkscape-font-specification:FreeSans;font-variant-ligatures:normal;font-variant-position:normal;font-variant-caps:normal;font-variant-numeric:normal;font-variant-alternates:normal;font-variant-east-asian:normal;font-feature-settings:normal;font-variation-settings:normal;text-indent:0;text-align:start;text-decoration:none;text-decoration-line:none;text-decoration-style:solid;text-decoration-color:#000000;letter-spacing:normal;word-spacing:normal;text-transform:none;writing-mode:lr-tb;direction:ltr;text-orientation:mixed;dominant-baseline:auto;baseline-shift:baseline;text-anchor:start;white-space:normal;shape-padding:0;shape-margin:0;inline-size:0;clip-rule:nonzero;display:inline;overflow:visible;visibility:visible;isolation:auto;mix-blend-mode:normal;color-interpolation:sRGB;color-interpolation-filters:linearRGB;solid-color:#000000;solid-opacity:1;vector-effect:none;fill:#000000;fill-opacity:1;fill-rule:nonzero;stroke:none;stroke-width:0.264583;stroke-linecap:butt;stroke-linejoin:miter;stroke-miterlimit:4;stroke-dasharray:none;stroke-dashoffset:0;stroke-opacity:1;color-rendering:auto;image-rendering:auto;shape-rendering:auto;text-rendering:auto;enable-background:accumulate;stop-color:#000000"
       d="m 21.291509,9.57912 v 1.28587 h -0.1658 V 9.57912 Z"
       id="path1051" />
    <path
       style="color:#000000;font-style:normal;font-variant:normal;font-weight:normal;font-stretch:normal;font-size:1.76389px;line-height:1.25;font-family:FreeSans;-inkscape-font-specification:FreeSans;font-variant-ligatures:normal;font-variant-position:normal;font-variant-caps:normal;font-variant-numeric:normal;font-variant-alternates:normal;font-variant-east-asian:normal;font-feature-settings:normal;font-variation-settings:normal;text-indent:0;text-align:start;text-decoration:none;text-decoration-line:none;text-decoration-style:solid;text-decoration-color:#000000;letter-spacing:normal;word-spacing:normal;text-transform:none;writing-mode:lr-tb;direction:ltr;text-orientation:mixed;dominant-baseline:auto;baseline-shift:baseline;text-anchor:start;white-space:normal;shape-padding:0;shape-margin:0;inline-size:0;clip-rule:nonzero;display:inline;overflow:visible;visibility:visible;isolation:auto;mix-blend-mode:normal;color-interpolation:sRGB;color-interpolation-filters:linearRGB;solid-color:#000000;solid-opacity:1;vector-effect:none;fill:#000000;fill-opacity:1;fill-rule:nonzero;stroke:none;stroke-width:0.264583;stroke-linecap:butt;stroke-linejoin:miter;stroke-miterlimit:4;stroke-dasharray:none;stroke-dashoffset:0;stroke-opacity:1;color-rendering:auto;image-rendering:auto;shape-rendering:auto;text-rendering:auto;enable-background:accumulate;stop-color:#000000"
       d="m 21.510239,10.23705 c 0,-0.0588 0.005,-0.11701 0.0141,-0.17463 0.0106,-0.0576 0.03,-0.11757 0.0582,-0.17992 0.0282,-0.0623 0.0629,-0.11642 0.10407,-0.16227 0.0423,-0.0471 0.0988,-0.0859 0.16934,-0.11642 0.0717,-0.0306 0.15228,-0.0459 0.24165,-0.0459 0.27987,0 0.44509,0.13993 0.49565,0.4198 h -0.16757 c -0.0188,-0.0917 -0.0558,-0.16051 -0.11112,-0.20637 -0.0553,-0.0459 -0.13405,-0.0688 -0.23636,-0.0688 -0.12465,0 -0.22343,0.0476 -0.29634,0.14287 -0.0717,0.0952 -0.10759,0.22519 -0.10759,0.38982 0,0.16111 0.0376,0.28928 0.11289,0.38453 0.0752,0.0941 0.17697,0.14111 0.30515,0.14111 0.10583,0 0.18697,-0.0294 0.24342,-0.0882 0.0565,-0.06 0.0947,-0.15231 0.11465,-0.27693 h 0.16933 c -0.0388,0.33984 -0.21519,0.50976 -0.52916,0.50976 -0.0882,0 -0.16758,-0.0147 -0.23813,-0.0441 -0.0694,-0.0306 -0.12524,-0.0688 -0.16757,-0.11465 -0.0411,-0.0459 -0.0758,-0.0994 -0.10407,-0.16051 -0.0271,-0.0623 -0.0459,-0.12172 -0.0564,-0.17816 -0.009,-0.0565 -0.0141,-0.1135 -0.0141,-0.17109 z"
       id="path1053" />
    <path
       style="color:#000000;font-style:normal;font-variant:normal;font-weight:normal;font-stretch:normal;font-size:1.76389px;line-height:1.25;font-family:FreeSans;-inkscape-font-specification:FreeSans;font-variant-ligatures:normal;font-variant-position:normal;font-variant-caps:normal;font-variant-numeric:normal;font-variant-alternates:normal;font-variant-east-asian:normal;font-feature-settings:normal;font-variation-settings:normal;text-indent:0;text-align:start;text-decoration:none;text-decoration-line:none;text-decoration-style:solid;text-decoration-color:#000000;letter-spacing:normal;word-spacing:normal;text-transform:none;writing-mode:lr-tb;direction:ltr;text-orientation:mixed;dominant-baseline:auto;baseline-shift:baseline;text-anchor:start;white-space:normal;shape-padding:0;shape-margin:0;inline-size:0;clip-rule:nonzero;display:inline;overflow:visible;visibility:visible;isolation:auto;mix-blend-mode:normal;color-interpolation:sRGB;color-interpolation-filters:linearRGB;solid-color:#000000;solid-opacity:1;vector-effect:none;fill:#000000;fill-opacity:1;fill-rule:nonzero;stroke:none;stroke-width:0.264583;stroke-linecap:butt;stroke-linejoin:miter;stroke-miterlimit:4;stroke-dasharray:none;stroke-dashoffset:0;stroke-opacity:1;color-rendering:auto;image-rendering:auto;shape-rendering:auto;text-rendering:auto;enable-background:accumulate;stop-color:#000000"
       d="m 23.522829,10.4787 h -0.49565 l -0.13582,0.38629 h -0.17462 l 0.45861,-1.28587 h 0.21166 l 0.45156,1.28587 h -0.18345 z m -0.0459,-0.13758 -0.19755,-0.58562 -0.21167,0.58562 z"
       id="path1055" />
    <path
       style="color:#000000;font-style:normal;font-variant:normal;font-weight:normal;font-stretch:normal;font-size:1.76389px;line-height:1.25;font-family:FreeSans;-inkscape-font-specification:FreeSans;font-variant-ligatures:normal;font-variant-position:normal;font-variant-caps:normal;font-variant-numeric:normal;font-variant-alternates:normal;font-variant-east-asian:normal;font-feature-settings:normal;font-variation-settings:normal;text-indent:0;text-align:start;text-decoration:none;text-decoration-line:none;text-decoration-style:solid;text-decoration-color:#000000;letter-spacing:normal;word-spacing:normal;text-transform:none;writing-mode:lr-tb;direction:ltr;text-orientation:mixed;dominant-baseline:auto;baseline-shift:baseline;text-anchor:start;white-space:normal;shape-padding:0;shape-margin:0;inline-size:0;clip-rule:nonzero;display:inline;overflow:visible;visibility:visible;isolation:auto;mix-blend-mode:normal;color-interpolation:sRGB;color-interpolation-filters:linearRGB;solid-color:#000000;solid-opacity:1;vector-effect:none;fill:#000000;fill-opacity:1;fill-rule:nonzero;stroke:none;stroke-width:0.264583;stroke-linecap:butt;stroke-linejoin:miter;stroke-miterlimit:4;stroke-dasharray:none;stroke-dashoffset:0;stroke-opacity:1;color-rendering:auto;image-rendering:auto;shape-rendering:auto;text-rendering:auto;enable-background:accumulate;stop-color:#000000"
       d="m 24.648189,9.57912 v 1.28587 h -0.16581 V 9.57912 Z"
       id="path1057" />
    <path
       style="color:#000000;font-style:normal;font-variant:normal;font-weight:normal;font-stretch:normal;font-size:1.76389px;line-height:1.25;font-family:FreeSans;-inkscape-font-specification:FreeSans;font-variant-ligatures:normal;font-variant-position:normal;font-variant-caps:normal;font-variant-numeric:normal;font-variant-alternates:normal;font-variant-east-asian:normal;font-feature-settings:normal;font-variation-settings:normal;text-indent:0;text-align:start;text-decoration:none;text-decoration-line:none;text-decoration-style:solid;text-decoration-color:#000000;letter-spacing:normal;word-spacing:normal;text-transform:none;writing-mode:lr-tb;direction:ltr;text-orientation:mixed;dominant-baseline:auto;baseline-shift:baseline;text-anchor:start;white-space:normal;shape-padding:0;shape-margin:0;inline-size:0;clip-rule:nonzero;display:inline;overflow:visible;visibility:visible;isolation:auto;mix-blend-mode:normal;color-interpolation:sRGB;color-interpolation-filters:linearRGB;solid-color:#000000;solid-opacity:1;vector-effect:none;fill:#000000;fill-opacity:1;fill-rule:nonzero;stroke:none;stroke-width:0.264583;stroke-linecap:butt;stroke-linejoin:miter;stroke-miterlimit:4;stroke-dasharray:none;stroke-dashoffset:0;stroke-opacity:1;color-rendering:auto;image-rendering:auto;shape-rendering:auto;text-rendering:auto;enable-background:accumulate;stop-color:#000000"
       d="m 25.942879,9.57912 v 1.28587 h -0.1852 l -0.66499,-1.04246 v 1.04246 h -0.15522 V 9.57912 h 0.17815 l 0.67204,1.05127 V 9.57912 Z"
       id="path1059" />
    <path
       style="color:#000000;font-style:normal;font-variant:normal;font-weight:normal;font-stretch:normal;font-size:1.76389px;line-height:1.25;font-family:FreeSans;-inkscape-font-specification:FreeSans;font-variant-ligatures:normal;font-variant-position:normal;font-variant-caps:normal;font-variant-numeric:normal;font-variant-alternates:normal;font-variant-east-asian:normal;font-feature-settings:normal;font-variation-settings:normal;text-indent:0;text-align:start;text-decoration:none;text-decoration-line:none;text-decoration-style:solid;text-decoration-color:#000000;letter-spacing:normal;word-spacing:normal;text-transform:none;writing-mode:lr-tb;direction:ltr;text-orientation:mixed;dominant-baseline:auto;baseline-shift:baseline;text-anchor:start;white-space:normal;shape-padding:0;shape-margin:0;inline-size:0;clip-rule:nonzero;display:inline;overflow:visible;visibility:visible;isolation:auto;mix-blend-mode:normal;color-interpolation:sRGB;color-interpolation-filters:linearRGB;solid-color:#000000;solid-opacity:1;vector-effect:none;fill:#000000;fill-opacity:1;fill-rule:nonzero;stroke:none;stroke-width:0.264583;stroke-linecap:butt;stroke-linejoin:miter;stroke-miterlimit:4;stroke-dasharray:none;stroke-dashoffset:0;stroke-opacity:1;color-rendering:auto;image-rendering:auto;shape-rendering:auto;text-rendering:auto;enable-background:accumulate;stop-color:#000000"
       d="M 26.225109,10.86499 V 9.57912 h 0.49565 c 0.16345,0 0.29163,0.057 0.38453,0.17109 0.0929,0.11407 0.13934,0.27105 0.13934,0.47096 0,0.19991 -0.047,0.35748 -0.14111,0.47272 -0.0929,0.11407 -0.22048,0.1711 -0.38276,0.1711 z m 0.16404,-0.14464 h 0.30339 c 0.127,0 0.22342,-0.0423 0.28927,-0.127 0.0659,-0.0847 0.0988,-0.20814 0.0988,-0.37042 0,-0.16345 -0.0329,-0.28751 -0.0988,-0.37218 -0.0659,-0.0847 -0.16229,-0.127 -0.28927,-0.127 h -0.30339 z"
       id="path1061" />
    <path
       style="color:#000000;font-style:normal;font-variant:normal;font-weight:normal;font-stretch:normal;font-size:1.76389px;line-height:1.25;font-family:FreeSans;-inkscape-font-specification:FreeSans;font-variant-ligatures:normal;font-variant-position:normal;font-variant-caps:normal;font-variant-numeric:normal;font-variant-alternates:normal;font-variant-east-asian:normal;font-feature-settings:normal;font-variation-settings:normal;text-indent:0;text-align:start;text-decoration:none;text-decoration-line:none;text-decoration-style:solid;text-decoration-color:#000000;letter-spacing:normal;word-spacing:normal;text-transform:none;writing-mode:lr-tb;direction:ltr;text-orientation:mixed;dominant-baseline:auto;baseline-shift:baseline;text-anchor:start;white-space:normal;shape-padding:0;shape-margin:0;inline-size:0;clip-rule:nonzero;display:inline;overflow:visible;visibility:visible;isolation:auto;mix-blend-mode:normal;color-interpolation:sRGB;color-interpolation-filters:linearRGB;solid-color:#000000;solid-opacity:1;vector-effect:none;fill:#000000;fill-opacity:1;fill-rule:nonzero;stroke:none;stroke-width:0.264583;stroke-linecap:butt;stroke-linejoin:miter;stroke-miterlimit:4;stroke-dasharray:none;stroke-dashoffset:0;stroke-opacity:1;color-rendering:auto;image-rendering:auto;shape-rendering:auto;text-rendering:auto;enable-background:accumulate;stop-color:#000000"
       d="m 28.280039,9.57912 h 0.16404 v 0.90311 c 0,0.12935 -0.0453,0.23224 -0.13582,0.30868 -0.0894,0.0764 -0.20932,0.11465 -0.35983,0.11465 -0.15287,0 -0.27341,-0.0376 -0.3616,-0.11289 -0.087,-0.0764 -0.13053,-0.17991 -0.13053,-0.31044 V 9.57912 h 0.16404 v 0.90311 c 0,0.0929 0.0294,0.16286 0.0882,0.2099 0.06,0.0459 0.13996,0.0688 0.23989,0.0688 0.10348,0 0.18462,-0.0247 0.24341,-0.0741 0.0588,-0.0494 0.0882,-0.1176 0.0882,-0.20461 z"
       id="path1063" />
    <path
       style="color:#000000;font-style:normal;font-variant:normal;font-weight:normal;font-stretch:normal;font-size:1.76389px;line-height:1.25;font-family:FreeSans;-inkscape-font-specification:FreeSans;font-variant-ligatures:normal;font-variant-position:normal;font-variant-caps:normal;font-variant-numeric:normal;font-variant-alternates:normal;font-variant-east-asian:normal;font-feature-settings:normal;font-variation-settings:normal;text-indent:0;text-align:start;text-decoration:none;text-decoration-line:none;text-decoration-style:solid;text-decoration-color:#000000;letter-spacing:normal;word-spacing:normal;text-transform:none;writing-mode:lr-tb;direction:ltr;text-orientation:mixed;dominant-baseline:auto;baseline-shift:baseline;text-anchor:start;white-space:normal;shape-padding:0;shape-margin:0;inline-size:0;clip-rule:nonzero;display:inline;overflow:visible;visibility:visible;isolation:auto;mix-blend-mode:normal;color-interpolation:sRGB;color-interpolation-filters:linearRGB;solid-color:#000000;solid-opacity:1;vector-effect:none;fill:#000000;fill-opacity:1;fill-rule:nonzero;stroke:none;stroke-width:0.264583;stroke-linecap:butt;stroke-linejoin:miter;stroke-miterlimit:4;stroke-dasharray:none;stroke-dashoffset:0;stroke-opacity:1;color-rendering:auto;image-rendering:auto;shape-rendering:auto;text-rendering:auto;enable-background:accumulate;stop-color:#000000"
       d="m 29.188439,10.76092 c 0.0659,0 0.12172,-0.008 0.16757,-0.0229 0.0459,-0.0153 0.0794,-0.0353 0.10054,-0.06 0.0223,-0.0247 0.0376,-0.0488 0.0459,-0.0723 0.009,-0.0247 0.0141,-0.0505 0.0141,-0.0776 0,-0.0976 -0.0788,-0.16698 -0.23636,-0.20814 l -0.31926,-0.0847 c -0.16816,-0.0435 -0.25224,-0.14349 -0.25224,-0.29986 0,-0.11641 0.0406,-0.20814 0.12171,-0.27517 0.0823,-0.0682 0.19403,-0.1023 0.33514,-0.1023 0.14817,0 0.26341,0.0353 0.34572,0.10583 0.0823,0.0694 0.12406,0.16698 0.12524,0.29281 h -0.15523 c -0.001,-0.0835 -0.0296,-0.14758 -0.0847,-0.19227 -0.0553,-0.0459 -0.13405,-0.0688 -0.23636,-0.0688 -0.087,0 -0.15699,0.02 -0.20991,0.06 -0.0517,0.04 -0.0776,0.0923 -0.0776,0.15699 0,0.0494 0.0159,0.0882 0.0476,0.11642 0.0317,0.0282 0.0864,0.0529 0.16404,0.0741 l 0.32279,0.0864 c 0.087,0.0235 0.15405,0.0635 0.20108,0.11995 0.0482,0.0565 0.0723,0.12408 0.0723,0.20284 0,0.0341 -0.005,0.0682 -0.0141,0.10231 -0.008,0.0329 -0.0241,0.0676 -0.0476,0.10407 -0.0235,0.0353 -0.0535,0.0664 -0.09,0.0935 -0.0365,0.0271 -0.0853,0.0494 -0.1464,0.067 -0.06,0.0177 -0.1282,0.0265 -0.20461,0.0265 -0.0482,0 -0.0947,-0.004 -0.13935,-0.0123 -0.0435,-0.007 -0.0882,-0.0206 -0.13406,-0.0406 -0.0459,-0.0212 -0.0853,-0.0477 -0.11818,-0.0794 -0.0329,-0.0329 -0.0606,-0.0764 -0.0829,-0.13053 -0.0211,-0.0541 -0.0323,-0.11639 -0.0335,-0.18697 h 0.15522 v 0.009 c 0,0.0365 0.005,0.0706 0.0159,0.1023 0.0117,0.0317 0.03,0.0629 0.0547,0.0935 0.0259,0.0306 0.0635,0.0553 0.11289,0.0741 0.0505,0.0177 0.11051,0.0265 0.17992,0.0265 z"
       id="path1065" />
    <path
       style="color:#000000;font-style:normal;font-variant:normal;font-weight:normal;font-stretch:normal;font-size:1.76389px;line-height:1.25;font-family:FreeSans;-inkscape-font-specification:FreeSans;font-variant-ligatures:normal;font-variant-position:normal;font-variant-caps:normal;font-variant-numeric:normal;font-variant-alternates:normal;font-variant-east-asian:normal;font-feature-settings:normal;font-variation-settings:normal;text-indent:0;text-align:start;text-decoration:none;text-decoration-line:none;text-decoration-style:solid;text-decoration-color:#000000;letter-spacing:normal;word-spacing:normal;text-transform:none;writing-mode:lr-tb;direction:ltr;text-orientation:mixed;dominant-baseline:auto;baseline-shift:baseline;text-anchor:start;white-space:normal;shape-padding:0;shape-margin:0;inline-size:0;clip-rule:nonzero;display:inline;overflow:visible;visibility:visible;isolation:auto;mix-blend-mode:normal;color-interpolation:sRGB;color-interpolation-filters:linearRGB;solid-color:#000000;solid-opacity:1;vector-effect:none;fill:#000000;fill-opacity:1;fill-rule:nonzero;stroke:none;stroke-width:0.264583;stroke-linecap:butt;stroke-linejoin:miter;stroke-miterlimit:4;stroke-dasharray:none;stroke-dashoffset:0;stroke-opacity:1;color-rendering:auto;image-rendering:auto;shape-rendering:auto;text-rendering:auto;enable-background:accumulate;stop-color:#000000"
       d="m 30.401999,9.72375 v 1.14124 h -0.16405 V 9.72375 h -0.42333 V 9.57912 h 1.00895 v 0.14463 z"
       id="path1067" />
    <path
       style="color:#000000;font-style:normal;font-variant:normal;font-weight:normal;font-stretch:normal;font-size:1.76389px;line-height:1.25;font-family:FreeSans;-inkscape-font-specification:FreeSans;font-variant-ligatures:normal;font-variant-position:normal;font-variant-caps:normal;font-variant-numeric:normal;font-variant-alternates:normal;font-variant-east-asian:normal;font-feature-settings:normal;font-variation-settings:normal;text-indent:0;text-align:start;text-decoration:none;text-decoration-line:none;text-decoration-style:solid;text-decoration-color:#000000;letter-spacing:normal;word-spacing:normal;text-transform:none;writing-mode:lr-tb;direction:ltr;text-orientation:mixed;dominant-baseline:auto;baseline-shift:baseline;text-anchor:start;white-space:normal;shape-padding:0;shape-margin:0;inline-size:0;clip-rule:nonzero;display:inline;overflow:visible;visibility:visible;isolation:auto;mix-blend-mode:normal;color-interpolation:sRGB;color-interpolation-filters:linearRGB;solid-color:#000000;solid-opacity:1;vector-effect:none;fill:#000000;fill-opacity:1;fill-rule:nonzero;stroke:none;stroke-width:0.264583;stroke-linecap:butt;stroke-linejoin:miter;stroke-miterlimit:4;stroke-dasharray:none;stroke-dashoffset:0;stroke-opacity:1;color-rendering:auto;image-rendering:auto;shape-rendering:auto;text-rendering:auto;enable-background:accumulate;stop-color:#000000"
       d="m 31.798999,10.22999 c 0.0376,0.0165 0.0688,0.0359 0.0935,0.0582 0.0259,0.0223 0.0441,0.0476 0.0547,0.0758 0.0117,0.0282 0.0194,0.0547 0.0229,0.0794 0.003,0.0247 0.005,0.0541 0.005,0.0882 0,0.0106 -6.7e-4,0.0259 -0.002,0.0459 v 0.0441 c 0,0.0482 0.005,0.0888 0.0159,0.12171 0.0106,0.0329 0.0312,0.06 0.0617,0.0811 v 0.0406 h -0.19932 c -0.0235,-0.0541 -0.0353,-0.12403 -0.0353,-0.2099 v -0.11465 c 0,-0.0788 -0.0171,-0.13642 -0.0512,-0.17287 -0.0341,-0.0376 -0.0876,-0.0564 -0.16051,-0.0564 h -0.42333 v 0.55386 h -0.16405 V 9.57917 h 0.59267 c 0.12583,0 0.22225,0.03 0.28928,0.0899 0.0682,0.0588 0.1023,0.14347 0.1023,0.254 0,0.0729 -0.0159,0.13347 -0.0476,0.18168 -0.0317,0.0482 -0.0835,0.09 -0.15522,0.12524 z m 0.0318,-0.28399 c 0,-0.0847 -0.0223,-0.14287 -0.067,-0.17462 -0.0447,-0.0317 -0.1064,-0.0476 -0.18521,-0.0476 h -0.39687 v 0.44274 h 0.39687 c 0.087,0 0.15052,-0.0176 0.1905,-0.0529 0.0411,-0.0353 0.0617,-0.0911 0.0617,-0.16757 z"
       id="path1069" />
    <path
       style="color:#000000;font-style:normal;font-variant:normal;font-weight:normal;font-stretch:normal;font-size:1.76389px;line-height:1.25;font-family:FreeSans;-inkscape-font-specification:FreeSans;font-variant-ligatures:normal;font-variant-position:normal;font-variant-caps:normal;font-variant-numeric:normal;font-variant-alternates:normal;font-variant-east-asian:normal;font-feature-settings:normal;font-variation-settings:normal;text-indent:0;text-align:start;text-decoration:none;text-decoration-line:none;text-decoration-style:solid;text-decoration-color:#000000;letter-spacing:normal;word-spacing:normal;text-transform:none;writing-mode:lr-tb;direction:ltr;text-orientation:mixed;dominant-baseline:auto;baseline-shift:baseline;text-anchor:start;white-space:normal;shape-padding:0;shape-margin:0;inline-size:0;clip-rule:nonzero;display:inline;overflow:visible;visibility:visible;isolation:auto;mix-blend-mode:normal;color-interpolation:sRGB;color-interpolation-filters:linearRGB;solid-color:#000000;solid-opacity:1;vector-effect:none;fill:#000000;fill-opacity:1;fill-rule:nonzero;stroke:none;stroke-width:0.264583;stroke-linecap:butt;stroke-linejoin:miter;stroke-miterlimit:4;stroke-dasharray:none;stroke-dashoffset:0;stroke-opacity:1;color-rendering:auto;image-rendering:auto;shape-rendering:auto;text-rendering:auto;enable-background:accumulate;stop-color:#000000"
       d="m 32.469269,9.57912 v 1.28587 h -0.1658 V 9.57912 Z"
       id="path1071" />
    <path
       style="color:#000000;font-style:normal;font-variant:normal;font-weight:normal;font-stretch:normal;font-size:1.76389px;line-height:1.25;font-family:FreeSans;-inkscape-font-specification:FreeSans;font-variant-ligatures:normal;font-variant-position:normal;font-variant-caps:normal;font-variant-numeric:normal;font-variant-alternates:normal;font-variant-east-asian:normal;font-feature-settings:normal;font-variation-settings:normal;text-indent:0;text-align:start;text-decoration:none;text-decoration-line:none;text-decoration-style:solid;text-decoration-color:#000000;letter-spacing:normal;word-spacing:normal;text-transform:none;writing-mode:lr-tb;direction:ltr;text-orientation:mixed;dominant-baseline:auto;baseline-shift:baseline;text-anchor:start;white-space:normal;shape-padding:0;shape-margin:0;inline-size:0;clip-rule:nonzero;display:inline;overflow:visible;visibility:visible;isolation:auto;mix-blend-mode:normal;color-interpolation:sRGB;color-interpolation-filters:linearRGB;solid-color:#000000;solid-opacity:1;vector-effect:none;fill:#000000;fill-opacity:1;fill-rule:nonzero;stroke:none;stroke-width:0.264583;stroke-linecap:butt;stroke-linejoin:miter;stroke-miterlimit:4;stroke-dasharray:none;stroke-dashoffset:0;stroke-opacity:1;color-rendering:auto;image-rendering:auto;shape-rendering:auto;text-rendering:auto;enable-background:accumulate;stop-color:#000000"
       d="m 33.449999,10.4787 h -0.49566 l -0.13582,0.38629 h -0.17462 l 0.45861,-1.28587 h 0.21167 l 0.45155,1.28587 h -0.18344 z m -0.0459,-0.13758 -0.19755,-0.58562 -0.21167,0.58562 z"
       id="path1073" />
    <path
       style="color:#000000;font-style:normal;font-variant:normal;font-weight:normal;font-stretch:normal;font-size:1.76389px;line-height:1.25;font-family:FreeSans;-inkscape-font-specification:FreeSans;font-variant-ligatures:normal;font-variant-position:normal;font-variant-caps:normal;font-variant-numeric:normal;font-variant-alternates:normal;font-variant-east-asian:normal;font-feature-settings:normal;font-variation-settings:normal;text-indent:0;text-align:start;text-decoration:none;text-decoration-line:none;text-decoration-style:solid;text-decoration-color:#000000;letter-spacing:normal;word-spacing:normal;text-transform:none;writing-mode:lr-tb;direction:ltr;text-orientation:mixed;dominant-baseline:auto;baseline-shift:baseline;text-anchor:start;white-space:normal;shape-padding:0;shape-margin:0;inline-size:0;clip-rule:nonzero;display:inline;overflow:visible;visibility:visible;isolation:auto;mix-blend-mode:normal;color-interpolation:sRGB;color-interpolation-filters:linearRGB;solid-color:#000000;solid-opacity:1;vector-effect:none;fill:#000000;fill-opacity:1;fill-rule:nonzero;stroke:none;stroke-width:0.264583;stroke-linecap:butt;stroke-linejoin:miter;stroke-miterlimit:4;stroke-dasharray:none;stroke-dashoffset:0;stroke-opacity:1;color-rendering:auto;image-rendering:auto;shape-rendering:auto;text-rendering:auto;enable-background:accumulate;stop-color:#000000"
       d="m 34.097339,9.57912 v 1.14123 h 0.635 v 0.14464 h -0.79904 V 9.57912 Z"
       id="path1075" />
  </g>
</svg>
